<svg width="13" height="14" viewBox="0 0 13 14" fill="none" xmlns="http://www.w3.org/2000/svg">
<path d="M8.12085 3.32891H9.38973C9.52982 3.32891 9.64351 3.21522 9.64351 3.07513V1.36544C9.64351 1.23246 9.54124 1.12182 9.40877 1.11243C9.00501 1.08375 8.21627 1.04492 7.64908 1.04492C6.09064 1.04492 5.07553 1.97882 5.07553 3.67608V5.35912H3.2991C3.15901 5.35912 3.04532 5.47281 3.04532 5.6129V7.38933C3.04532 7.52942 3.15901 7.64311 3.2991 7.64311H5.07553V12.4649C5.07553 12.6049 5.18922 12.7186 5.32931 12.7186H7.10574C7.24583 12.7186 7.35952 12.6049 7.35952 12.4649V7.64311H9.19229C9.32172 7.64311 9.43034 7.54591 9.44455 7.41725L9.64199 5.64081C9.65873 5.49058 9.54098 5.35912 9.38973 5.35912H7.35952V4.09024C7.35952 3.66973 7.70034 3.32891 8.12085 3.32891Z" fill="black"/>
</svg>
