<svg width="14" height="14" viewBox="0 0 14 14" fill="none" xmlns="http://www.w3.org/2000/svg">
<g clip-path="url(#clip0_177_331)">
<path fill-rule="evenodd" clip-rule="evenodd" d="M4.20913 0.575176C4.88568 0.544031 5.10139 0.537109 6.82476 0.537109C8.54813 0.537109 8.76384 0.544607 9.43981 0.575176C10.1158 0.605744 10.5772 0.713599 10.9809 0.869903C11.4037 1.02967 11.7872 1.27941 12.1045 1.60239C12.4275 1.91904 12.6766 2.30201 12.8358 2.72535C12.9927 3.12909 13.1 3.5905 13.1311 4.26532C13.1623 4.94302 13.1692 5.15873 13.1692 6.88152C13.1692 8.6049 13.1617 8.82061 13.1311 9.49715C13.1005 10.172 12.9927 10.6334 12.8358 11.0371C12.6766 11.4605 12.427 11.8441 12.1045 12.1612C11.7872 12.4842 11.4037 12.7334 10.9809 12.8926C10.5772 13.0494 10.1158 13.1567 9.44096 13.1879C8.76384 13.219 8.54813 13.2259 6.82476 13.2259C5.10139 13.2259 4.88568 13.2184 4.20913 13.1879C3.53432 13.1573 3.0729 13.0494 2.66917 12.8926C2.24578 12.7334 1.86217 12.4838 1.54505 12.1612C1.22229 11.8444 0.972509 11.461 0.81314 11.0377C0.656837 10.634 0.549558 10.1725 0.518413 9.49773C0.487268 8.82003 0.480347 8.60432 0.480347 6.88152C0.480347 5.15815 0.487845 4.94244 0.518413 4.26647C0.548982 3.5905 0.656837 3.12909 0.81314 2.72535C0.972744 2.30206 1.22271 1.91864 1.54563 1.60182C1.8623 1.27912 2.24552 1.02935 2.66859 0.869903C3.07233 0.713599 3.53374 0.606321 4.20855 0.575176H4.20913ZM9.38848 1.71717C8.71943 1.6866 8.51872 1.68026 6.82476 1.68026C5.1308 1.68026 4.93009 1.6866 4.26104 1.71717C3.64217 1.74543 3.30649 1.84867 3.08271 1.93576C2.78683 2.05112 2.57516 2.18781 2.3531 2.40986C2.14261 2.61465 1.98062 2.86394 1.879 3.13947C1.79191 3.36326 1.68867 3.69893 1.66041 4.3178C1.62984 4.98685 1.62349 5.18756 1.62349 6.88152C1.62349 8.57548 1.62984 8.77619 1.66041 9.44524C1.68867 10.0641 1.79191 10.3998 1.879 10.6236C1.98051 10.8987 2.14258 11.1484 2.3531 11.3532C2.55785 11.5637 2.80759 11.7258 3.08271 11.8273C3.30649 11.9144 3.64217 12.0176 4.26104 12.0459C4.93009 12.0764 5.13022 12.0828 6.82476 12.0828C8.51929 12.0828 8.71943 12.0764 9.38848 12.0459C10.0073 12.0176 10.343 11.9144 10.5668 11.8273C10.8627 11.7119 11.0744 11.5752 11.2964 11.3532C11.5069 11.1484 11.669 10.8987 11.7705 10.6236C11.8576 10.3998 11.9608 10.0641 11.9891 9.44524C12.0197 8.77619 12.026 8.57548 12.026 6.88152C12.026 5.18756 12.0197 4.98685 11.9891 4.3178C11.9608 3.69893 11.8576 3.36326 11.7705 3.13947C11.6552 2.84359 11.5185 2.63192 11.2964 2.40986C11.0916 2.19939 10.8423 2.0374 10.5668 1.93576C10.343 1.84867 10.0073 1.74543 9.38848 1.71717ZM6.01441 8.83733C6.46697 9.02572 6.9709 9.05115 7.44013 8.90927C7.90935 8.76739 8.31477 8.467 8.58713 8.05942C8.85949 7.65183 8.98189 7.16233 8.93344 6.67452C8.88498 6.18672 8.66868 5.73086 8.32146 5.38482C8.10012 5.16361 7.83249 4.99424 7.53783 4.88888C7.24318 4.78353 6.92882 4.74482 6.61741 4.77553C6.30599 4.80625 6.00526 4.90563 5.73687 5.06652C5.46847 5.22741 5.23909 5.44581 5.06522 5.70599C4.89136 5.96617 4.77735 6.26167 4.7314 6.5712C4.68545 6.88073 4.7087 7.1966 4.79947 7.49607C4.89025 7.79554 5.04629 8.07116 5.25637 8.30309C5.46646 8.53501 5.72534 8.71747 6.01441 8.83733ZM4.51885 4.57562C4.82167 4.2728 5.18116 4.03259 5.57681 3.86871C5.97246 3.70483 6.39651 3.62048 6.82476 3.62048C7.25301 3.62048 7.67706 3.70483 8.07271 3.86871C8.46835 4.03259 8.82785 4.2728 9.13066 4.57562C9.43348 4.87843 9.67369 5.23793 9.83757 5.63357C10.0015 6.02922 10.0858 6.45328 10.0858 6.88152C10.0858 7.30977 10.0015 7.73382 9.83757 8.12947C9.67369 8.52512 9.43348 8.88461 9.13066 9.18743C8.5191 9.79899 7.68964 10.1426 6.82476 10.1426C5.95988 10.1426 5.13042 9.79899 4.51885 9.18743C3.90729 8.57586 3.56372 7.7464 3.56372 6.88152C3.56372 6.01664 3.90729 5.18718 4.51885 4.57562ZM10.8091 4.10613C10.8841 4.03534 10.9442 3.95022 10.9857 3.8558C11.0273 3.76138 11.0495 3.65958 11.051 3.55643C11.0525 3.45328 11.0333 3.35088 10.9945 3.25529C10.9557 3.1597 10.8981 3.07286 10.8252 2.99992C10.7522 2.92697 10.6654 2.86941 10.5698 2.83062C10.4742 2.79184 10.3718 2.77264 10.2687 2.77414C10.1655 2.77564 10.0637 2.79783 9.9693 2.83938C9.87488 2.88093 9.78975 2.941 9.71896 3.01604C9.5813 3.16198 9.50593 3.35583 9.50885 3.55643C9.51178 3.75704 9.59276 3.9486 9.73463 4.09047C9.87649 4.23233 10.0681 4.31332 10.2687 4.31624C10.4693 4.31917 10.6631 4.2438 10.8091 4.10613Z" fill="black"/>
</g>
<defs>
<clipPath id="clip0_177_331">
<rect width="12.6888" height="12.6888" fill="white" transform="translate(0.480347 0.537109)"/>
</clipPath>
</defs>
</svg>
