<svg width="16" height="16" viewBox="0 0 16 16" fill="none" xmlns="http://www.w3.org/2000/svg">
<g clip-path="url(#clip0_177_353)">
<path d="M10.7551 9.69987C10.9914 11.388 9.09014 13.0496 6.5084 13.4111C3.92667 13.7725 1.64216 12.697 1.4058 11.0088C1.16945 9.32064 3.07075 7.65909 5.65249 7.29763C8.23422 6.93617 10.5187 8.01169 10.7551 9.69987Z" fill="white"/>
<path d="M6.40616 13.3538C3.88426 13.6032 1.70685 12.4612 1.54412 10.8081C1.38043 9.15128 3.29232 7.61149 5.81137 7.3612C8.33328 7.11092 10.5107 8.25386 10.6706 9.9069C10.8371 11.5637 8.92521 13.1064 6.40616 13.3538ZM11.4471 7.86083C11.233 7.79516 11.0845 7.75329 11.1978 7.4716C11.4414 6.85873 11.4652 6.33246 11.2006 5.95465C10.7067 5.24947 9.35346 5.28563 7.80415 5.93657C7.80415 5.93657 7.31595 6.14783 7.44157 5.76432C7.67948 4.99728 7.64427 4.35776 7.27217 3.98566C6.4309 3.14439 4.1945 4.01802 2.27595 5.93657C0.842745 7.36691 0.0100403 8.89243 0.0100403 10.2105C0.0100403 12.7267 3.23998 14.2579 6.39855 14.2579C10.5383 14.2579 13.2952 11.8521 13.2952 9.94306C13.2952 8.78584 12.3226 8.13205 11.4481 7.86083H11.4471Z" fill="black"/>
<path d="M14.1974 3.25193C13.7235 2.72604 13.1195 2.33427 12.446 2.11609C11.7726 1.8979 11.0535 1.86098 10.3613 2.00906C10.2867 2.02505 10.2159 2.05559 10.1531 2.09892C10.0903 2.14225 10.0367 2.19753 9.99521 2.2616C9.95376 2.32566 9.92534 2.39727 9.91157 2.47232C9.8978 2.54737 9.89894 2.6244 9.91494 2.69901C9.93094 2.77362 9.96147 2.84435 10.0048 2.90716C10.0481 2.96997 10.1034 3.02363 10.1675 3.06507C10.2315 3.10652 10.3032 3.13494 10.3782 3.14871C10.4533 3.16248 10.5303 3.16134 10.6049 3.14534C11.0969 3.03988 11.6079 3.06586 12.0866 3.22067C12.5654 3.37547 12.9949 3.65364 13.332 4.02717C13.669 4.40071 13.9018 4.85644 14.0067 5.3485C14.1117 5.84056 14.0853 6.3516 13.93 6.83018C13.8829 6.97733 13.8958 7.13716 13.9661 7.27479C14.0363 7.41243 14.1581 7.5167 14.305 7.56486C14.4521 7.612 14.6119 7.59904 14.7496 7.5288C14.8872 7.45855 14.9915 7.33673 15.0396 7.1899V7.18705C15.2576 6.51521 15.2946 5.79778 15.1469 5.10709C14.9992 4.41639 14.672 3.77684 14.1984 3.25288L14.1974 3.25193Z" fill="black"/>
<path d="M12.6605 4.6404C12.4299 4.3841 12.1357 4.1933 11.8076 4.08734C11.4796 3.98138 11.1293 3.96403 10.7924 4.03705C10.7279 4.05073 10.6668 4.07697 10.6126 4.11427C10.5583 4.15157 10.5119 4.19919 10.476 4.25442C10.4035 4.36597 10.3784 4.50173 10.406 4.63184C10.4336 4.76195 10.5118 4.87575 10.6234 4.94821C10.7349 5.02067 10.8707 5.04585 11.0008 5.01821C11.3253 4.94969 11.6755 5.05057 11.9134 5.31228C12.1513 5.57684 12.217 5.93657 12.1123 6.25157C12.0721 6.37866 12.0836 6.5165 12.1443 6.63516C12.2051 6.75382 12.3102 6.84373 12.4368 6.88537C12.5639 6.92588 12.7019 6.9145 12.8206 6.85371C12.9393 6.79292 13.0292 6.68765 13.0706 6.56086C13.1772 6.23279 13.1954 5.88245 13.1233 5.54512C13.0513 5.2078 12.8917 4.89542 12.6605 4.63945V4.6404Z" fill="black"/>
<path d="M6.54605 10.3589C6.4566 10.5103 6.26341 10.5816 6.1121 10.5198C5.96078 10.4598 5.91605 10.2876 6.0017 10.142C6.09116 9.99636 6.27864 9.92498 6.4271 9.98113C6.57556 10.0344 6.6298 10.2038 6.54605 10.3589ZM5.74 11.3886C5.49637 11.7779 4.97296 11.9482 4.57992 11.7693C4.19355 11.5942 4.07744 11.1422 4.32107 10.7615C4.56184 10.3837 5.06717 10.2143 5.45735 10.378C5.85324 10.5474 5.98077 10.9966 5.74 11.3896V11.3886ZM6.6555 8.63453C5.45735 8.32238 4.10124 8.92003 3.58068 9.97542C3.0487 11.0517 3.56259 12.2508 4.77311 12.6429C6.02835 13.0474 7.50914 12.4259 8.02399 11.2659C8.53217 10.1267 7.89932 8.95809 6.6555 8.63358V8.63453Z" fill="black"/>
</g>
<defs>
<clipPath id="clip0_177_353">
<rect width="15.2266" height="15.2266" fill="white" transform="translate(0.00909424)"/>
</clipPath>
</defs>
</svg>
