<svg width="14" height="14" viewBox="0 0 14 14" fill="none" xmlns="http://www.w3.org/2000/svg">
<g clip-path="url(#clip0_177_329)">
<path d="M5.92993 8.96938V5.04782L9.42697 7.0086L5.92993 8.96938Z" fill="white"/>
<path d="M13.7163 3.86346C13.6397 3.58723 13.4898 3.33537 13.2816 3.13309C13.0734 2.93082 12.8142 2.78522 12.5298 2.71086C11.4827 2.43555 7.27494 2.43555 7.27494 2.43555C7.27494 2.43555 3.06719 2.43555 2.02006 2.71086C1.73572 2.78522 1.47647 2.93082 1.26825 3.13309C1.06004 3.33537 0.910161 3.58723 0.833626 3.86346C0.638103 4.90092 0.543221 5.95392 0.550227 7.0086C0.543221 8.06328 0.638103 9.11628 0.833626 10.1537C0.910161 10.43 1.06004 10.6818 1.26825 10.8841C1.47647 11.0864 1.73572 11.232 2.02006 11.3063C3.06719 11.5817 7.27494 11.5817 7.27494 11.5817C7.27494 11.5817 11.4827 11.5817 12.5298 11.3063C12.8142 11.232 13.0734 11.0864 13.2816 10.8841C13.4898 10.6818 13.6397 10.43 13.7163 10.1537C13.9118 9.11628 14.0067 8.06328 13.9997 7.0086C14.0067 5.95392 13.9118 4.90092 13.7163 3.86346ZM5.93 8.96848V5.04872L9.42205 7.0086L5.93 8.96848Z" fill="black"/>
</g>
<defs>
<clipPath id="clip0_177_329">
<rect width="13.4502" height="13.4502" fill="white" transform="translate(0.549866 0.283203)"/>
</clipPath>
</defs>
</svg>
